<svg id="Capa_1" enable-background="new 0 0 512 512" height="512" viewBox="0 0 512 512" width="512" xmlns="http://www.w3.org/2000/svg"><g><path d="m510.079 110.44c-1.969-3.508-5.265-6.077-9.146-7.132l-101-27.438c-4.511-1.225-9.333-.279-13.043 2.56-3.712 2.838-5.89 7.243-5.89 11.916v375.654c0 7.469 29.406 4.179 29.406 4.179l101-348.216c1.12-3.863.643-8.015-1.327-11.523z" fill="#adcfff"/><path d="m125.111 78.43c-3.712-2.838-8.533-3.784-13.043-2.56l-101 27.438c-3.882 1.055-7.178 3.624-9.146 7.132-1.97 3.508-2.448 7.659-1.327 11.522l101 348.216s29.406 3.29 29.406-4.179v-375.653c-.001-4.673-2.178-9.078-5.89-11.916z" fill="#d7e8ff"/><path d="m396 31h-280c-8.284 0-15 6.716-15 15v420c0 8.284 6.716 15 15 15h280c8.284 0 15-6.716 15-15v-420c0-8.284-6.716-15-15-15z" fill="#ebf3ff"/><path d="m396 31h-140v450h140c8.284 0 15-6.716 15-15v-420c0-8.284-6.716-15-15-15z" fill="#d7e8ff"/><circle cx="156" cy="76" fill="#ff80a9" r="15"/><circle cx="366" cy="431" fill="#ff3c7d" r="15"/><path d="m282.834 183.579c-9.549 0-18.836 2.69-26.834 7.611-7.997-4.922-17.284-7.611-26.834-7.611-28.213 0-51.166 22.953-51.166 51.166 0 45.57 62.795 86.787 69.956 91.337 2.455 1.56 5.249 2.34 8.044 2.34s5.59-.78 8.045-2.34c7.16-4.55 69.955-45.767 69.955-91.337 0-28.213-22.953-51.166-51.166-51.166z" fill="#ff80a9"/><path d="m282.834 183.579c-9.549 0-18.836 2.69-26.834 7.611v137.231c2.795 0 5.59-.78 8.045-2.34 7.16-4.55 69.955-45.767 69.955-91.337 0-28.212-22.953-51.165-51.166-51.165z" fill="#ff3c7d"/></g></svg>