<svg width="24" height="24" viewBox="0 0 24 24" fill="none" xmlns="http://www.w3.org/2000/svg">
<path d="M21.8055 10.0415H21V10H12V14H17.6515C16.827 16.3285 14.6115 18 12 18C8.6865 18 6 15.3135 6 12C6 8.6865 8.6865 6 12 6C13.5295 6 14.921 6.577 15.9805 7.5195L18.809 4.691C17.023 3.0265 14.634 2 12 2C6.4775 2 2 6.4775 2 12C2 17.5225 6.4775 22 12 22C17.5225 22 22 17.5225 22 12C22 11.3295 21.931 10.675 21.8055 10.0415Z" fill="#FFC107"/>
<path d="M3.15295 7.3455L6.43845 9.755C7.32745 7.554 9.48045 6 12 6C13.5295 6 14.921 6.577 15.9805 7.5195L18.809 4.691C17.023 3.0265 14.634 2 12 2C8.15895 2 4.82795 4.1685 3.15295 7.3455Z" fill="#FF3D00"/>
<path d="M11.9999 22C14.5829 22 16.9299 21.0115 18.7044 19.404L15.6094 16.785C14.6054 17.5455 13.3574 18 11.9999 18C9.39891 18 7.19041 16.3415 6.35841 14.027L3.09741 16.5395C4.75241 19.778 8.11341 22 11.9999 22Z" fill="#4CAF50"/>
<path d="M21.8055 10.0414H21V9.99988H12V13.9999H17.6515C17.2555 15.1184 16.536 16.0829 15.608 16.7854C15.6085 16.7849 15.609 16.7849 15.6095 16.7844L18.7045 19.4034C18.4855 19.6024 22 16.9999 22 11.9999C22 11.3294 21.931 10.6749 21.8055 10.0414Z" fill="#1976D2"/>
</svg>
