<svg width="22" height="18" viewBox="0 0 22 18" fill="none" xmlns="http://www.w3.org/2000/svg">
<path d="M2.80298 17L19.47 1" stroke="#777777" stroke-width="1.5" stroke-linecap="round" stroke-linejoin="round"/>
<path d="M8.2998 15.2674H8.29981C9.17344 15.5388 10.0838 15.6734 10.9985 15.6666C14.643 15.7279 18.3391 13.1661 20.6201 10.6559V10.6559C21.1266 10.0936 21.1266 9.23954 20.6201 8.67723V8.67723C19.7937 7.77075 18.8783 6.94973 17.8876 6.22656" stroke="#777777" stroke-width="1.5" stroke-linecap="round" stroke-linejoin="round"/>
<path d="M13.1437 3.91723V3.91723C12.4423 3.7427 11.7215 3.65846 10.9987 3.66657C7.41556 3.60701 3.70971 6.11279 1.37989 8.67546V8.67546C0.873371 9.23777 0.873371 10.0918 1.37989 10.6541L1.37988 10.6541C2.08828 11.4296 2.86145 12.1433 3.69103 12.7875" stroke="#777777" stroke-width="1.5" stroke-linecap="round" stroke-linejoin="round"/>
<path d="M7.66504 9.66683V9.66594C7.66504 7.82548 9.15705 6.3335 10.9976 6.3335C10.9981 6.3335 10.9987 6.3335 10.9993 6.3335" stroke="#777777" stroke-width="1.5" stroke-linecap="round" stroke-linejoin="round"/>
<path d="M14.3318 9.66602V9.6669C14.3318 11.5079 12.8394 13.0002 10.9984 13.0002C10.9982 13.0002 10.9979 13.0002 10.9976 13.0002" stroke="#777777" stroke-width="1.5" stroke-linecap="round" stroke-linejoin="round"/>
</svg>
