<svg width="22" height="14" viewBox="0 0 22 14" fill="none" xmlns="http://www.w3.org/2000/svg">
<path d="M10.9987 1.00107C7.41551 0.940626 3.70969 3.44473 1.37988 6.00929V6.00929C0.873372 6.57163 0.873372 7.4257 1.37988 7.98804C3.65902 10.4984 7.35418 13.0603 10.9987 12.9989C14.6432 13.0603 18.3392 10.4984 20.6201 7.98804V7.98804C21.1266 7.4257 21.1266 6.57162 20.6201 6.00929C18.2876 3.44473 14.5818 0.940626 10.9987 1.00107V1.00107Z" stroke="#777777" stroke-width="1.5" stroke-linecap="round" stroke-linejoin="round"/>
<path d="M14.3318 7.00038V6.99949C14.3318 8.84052 12.8394 10.333 10.9984 10.333C9.15744 10.333 7.66504 8.84052 7.66504 6.99949C7.66504 5.15881 9.1569 3.66651 10.9975 3.66602V3.66602C12.838 3.66503 14.3308 5.15629 14.3318 6.99683C14.3318 6.99801 14.3318 6.9992 14.3318 7.00038V7.00038Z" stroke="#777777" stroke-width="1.5" stroke-linecap="round" stroke-linejoin="round"/>
</svg>
